<mxfile host="Electron" agent="Mozilla/5.0 (X11; Linux x86_64) AppleWebKit/537.36 (KHTML, like Gecko) draw.io/26.1.1 Chrome/132.0.6834.210 Electron/34.3.3 Safari/537.36" version="26.1.1">
  <diagram name="Page-1" id="TUc2pWuJ1cBv-ASf7XhR">
    <mxGraphModel dx="2284" dy="1970" grid="1" gridSize="10" guides="1" tooltips="1" connect="1" arrows="1" fold="1" page="1" pageScale="1" pageWidth="850" pageHeight="1100" math="0" shadow="0">
      <root>
        <mxCell id="0" />
        <mxCell id="1" parent="0" />
        <mxCell id="xSIsmB00aMhGTNxRwq87-2" value="" style="rounded=0;whiteSpace=wrap;html=1;" parent="1" vertex="1">
          <mxGeometry x="40" y="160" width="960" height="600" as="geometry" />
        </mxCell>
        <object placeholders="1" c4Name="OpenStreetMap API" c4Type="REST Location Service" c4Description="Vind locaties in de omgeving." label="&lt;font style=&quot;font-size: 16px&quot;&gt;&lt;b&gt;%c4Name%&lt;/b&gt;&lt;/font&gt;&lt;div&gt;[%c4Type%]&lt;/div&gt;&lt;br&gt;&lt;div&gt;&lt;font style=&quot;font-size: 11px&quot;&gt;&lt;font color=&quot;#cccccc&quot;&gt;%c4Description%&lt;/font&gt;&lt;/div&gt;" id="xSIsmB00aMhGTNxRwq87-6">
          <mxCell style="rounded=1;whiteSpace=wrap;html=1;labelBackgroundColor=none;fillColor=#8C8496;fontColor=#ffffff;align=center;arcSize=10;strokeColor=#736782;metaEdit=1;resizable=0;points=[[0.25,0,0],[0.5,0,0],[0.75,0,0],[1,0.25,0],[1,0.5,0],[1,0.75,0],[0.75,1,0],[0.5,1,0],[0.25,1,0],[0,0.75,0],[0,0.5,0],[0,0.25,0]];" parent="1" vertex="1">
            <mxGeometry x="400" y="-80" width="240" height="120" as="geometry" />
          </mxCell>
        </object>
        <object placeholders="1" c4Name="AuthController" c4Type="Component" c4Technology="ASP.NET Core MVC Controller" c4Description="Handelt authenticatie-verzoeken af (login/logout)." label="&lt;font style=&quot;font-size: 16px&quot;&gt;&lt;b&gt;%c4Name%&lt;/b&gt;&lt;/font&gt;&lt;div&gt;[%c4Type%: %c4Technology%]&lt;/div&gt;&lt;br&gt;&lt;div&gt;&lt;font style=&quot;font-size: 11px&quot;&gt;%c4Description%&lt;/font&gt;&lt;/div&gt;" id="xSIsmB00aMhGTNxRwq87-22">
          <mxCell style="rounded=1;whiteSpace=wrap;html=1;labelBackgroundColor=none;fillColor=#63BEF2;fontColor=#ffffff;align=center;arcSize=6;strokeColor=#2086C9;metaEdit=1;resizable=0;points=[[0.25,0,0],[0.5,0,0],[0.75,0,0],[1,0.25,0],[1,0.5,0],[1,0.75,0],[0.75,1,0],[0.5,1,0],[0.25,1,0],[0,0.75,0],[0,0.5,0],[0,0.25,0]];" parent="1" vertex="1">
            <mxGeometry x="720" y="590" width="240" height="120" as="geometry" />
          </mxCell>
        </object>
        <object placeholders="1" c4Name="Sensoring API" c4Type=".NET Core API" c4Description="Levert gedetecteerd afval." label="&lt;font style=&quot;font-size: 16px&quot;&gt;&lt;b&gt;%c4Name%&lt;/b&gt;&lt;/font&gt;&lt;div&gt;[%c4Type%]&lt;/div&gt;&lt;br&gt;&lt;div&gt;&lt;font style=&quot;font-size: 11px&quot;&gt;&lt;font color=&quot;#cccccc&quot;&gt;%c4Description%&lt;/font&gt;&lt;/div&gt;" id="xSIsmB00aMhGTNxRwq87-23">
          <mxCell style="rounded=1;whiteSpace=wrap;html=1;labelBackgroundColor=none;fillColor=#8C8496;fontColor=#ffffff;align=center;arcSize=10;strokeColor=#736782;metaEdit=1;resizable=0;points=[[0.25,0,0],[0.5,0,0],[0.75,0,0],[1,0.25,0],[1,0.5,0],[1,0.75,0],[0.75,1,0],[0.5,1,0],[0.25,1,0],[0,0.75,0],[0,0.5,0],[0,0.25,0]];" parent="1" vertex="1">
            <mxGeometry x="80" y="-80" width="240" height="120" as="geometry" />
          </mxCell>
        </object>
        <object placeholders="1" c4Name="TrashController" c4Type="Component" c4Technology="ASP.NET Core MVC Controller" c4Description="Levert trashdata en voorspellingen op." label="&lt;font style=&quot;font-size: 16px&quot;&gt;&lt;b&gt;%c4Name%&lt;/b&gt;&lt;/font&gt;&lt;div&gt;[%c4Type%: %c4Technology%]&lt;/div&gt;&lt;br&gt;&lt;div&gt;&lt;font style=&quot;font-size: 11px&quot;&gt;%c4Description%&lt;/font&gt;&lt;/div&gt;" id="xSIsmB00aMhGTNxRwq87-25">
          <mxCell style="rounded=1;whiteSpace=wrap;html=1;labelBackgroundColor=none;fillColor=#63BEF2;fontColor=#ffffff;align=center;arcSize=6;strokeColor=#2086C9;metaEdit=1;resizable=0;points=[[0.25,0,0],[0.5,0,0],[0.75,0,0],[1,0.25,0],[1,0.5,0],[1,0.75,0],[0.75,1,0],[0.5,1,0],[0.25,1,0],[0,0.75,0],[0,0.5,0],[0,0.25,0]];" parent="1" vertex="1">
            <mxGeometry x="400" y="590" width="240" height="120" as="geometry" />
          </mxCell>
        </object>
        <mxCell id="05esOvDfcdhIf1nWYy37-12" style="edgeStyle=orthogonalEdgeStyle;rounded=0;orthogonalLoop=1;jettySize=auto;html=1;" parent="1" source="xSIsmB00aMhGTNxRwq87-26" target="xSIsmB00aMhGTNxRwq87-27" edge="1">
          <mxGeometry relative="1" as="geometry" />
        </mxCell>
        <mxCell id="05esOvDfcdhIf1nWYy37-13" value="Activates" style="edgeLabel;html=1;align=center;verticalAlign=middle;resizable=0;points=[];" parent="05esOvDfcdhIf1nWYy37-12" vertex="1" connectable="0">
          <mxGeometry x="-0.0393" y="-2" relative="1" as="geometry">
            <mxPoint as="offset" />
          </mxGeometry>
        </mxCell>
        <mxCell id="05esOvDfcdhIf1nWYy37-16" style="edgeStyle=orthogonalEdgeStyle;rounded=0;orthogonalLoop=1;jettySize=auto;html=1;" parent="1" source="xSIsmB00aMhGTNxRwq87-26" target="xSIsmB00aMhGTNxRwq87-28" edge="1">
          <mxGeometry relative="1" as="geometry" />
        </mxCell>
        <mxCell id="05esOvDfcdhIf1nWYy37-17" value="Activates" style="edgeLabel;html=1;align=center;verticalAlign=middle;resizable=0;points=[];" parent="05esOvDfcdhIf1nWYy37-16" vertex="1" connectable="0">
          <mxGeometry x="-0.0036" y="-1" relative="1" as="geometry">
            <mxPoint as="offset" />
          </mxGeometry>
        </mxCell>
        <mxCell id="05esOvDfcdhIf1nWYy37-20" style="rounded=0;orthogonalLoop=1;jettySize=auto;html=1;" parent="1" source="xSIsmB00aMhGTNxRwq87-27" target="xSIsmB00aMhGTNxRwq87-6" edge="1">
          <mxGeometry relative="1" as="geometry" />
        </mxCell>
        <mxCell id="05esOvDfcdhIf1nWYy37-23" value="Sends webrequests to" style="edgeLabel;html=1;align=center;verticalAlign=middle;resizable=0;points=[];" parent="05esOvDfcdhIf1nWYy37-20" vertex="1" connectable="0">
          <mxGeometry x="0.0756" y="2" relative="1" as="geometry">
            <mxPoint as="offset" />
          </mxGeometry>
        </mxCell>
        <object placeholders="1" c4Name="BackgroundProcessingService" c4Type="Component" c4Technology=".NET Background Service" c4Description="Draait elke 6 uur (geconfigureerd via HostedService)" label="&lt;font style=&quot;font-size: 16px&quot;&gt;&lt;b&gt;%c4Name%&lt;/b&gt;&lt;/font&gt;&lt;div&gt;[%c4Type%: %c4Technology%]&lt;/div&gt;&lt;br&gt;&lt;div&gt;&lt;font style=&quot;font-size: 11px&quot;&gt;%c4Description%&lt;/font&gt;&lt;/div&gt;" id="xSIsmB00aMhGTNxRwq87-26">
          <mxCell style="rounded=1;whiteSpace=wrap;html=1;labelBackgroundColor=none;fillColor=#63BEF2;fontColor=#ffffff;align=center;arcSize=6;strokeColor=#2086C9;metaEdit=1;resizable=0;points=[[0.25,0,0],[0.5,0,0],[0.75,0,0],[1,0.25,0],[1,0.5,0],[1,0.75,0],[0.75,1,0],[0.5,1,0],[0.25,1,0],[0,0.75,0],[0,0.5,0],[0,0.25,0]];" parent="1" vertex="1">
            <mxGeometry x="400" y="210" width="240" height="120" as="geometry" />
          </mxCell>
        </object>
        <mxCell id="05esOvDfcdhIf1nWYy37-10" style="edgeStyle=orthogonalEdgeStyle;rounded=0;orthogonalLoop=1;jettySize=auto;html=1;" parent="1" source="xSIsmB00aMhGTNxRwq87-27" target="xSIsmB00aMhGTNxRwq87-29" edge="1">
          <mxGeometry relative="1" as="geometry" />
        </mxCell>
        <mxCell id="05esOvDfcdhIf1nWYy37-11" value="Uses" style="edgeLabel;html=1;align=center;verticalAlign=middle;resizable=0;points=[];" parent="05esOvDfcdhIf1nWYy37-10" vertex="1" connectable="0">
          <mxGeometry x="-0.2" y="-1" relative="1" as="geometry">
            <mxPoint as="offset" />
          </mxGeometry>
        </mxCell>
        <mxCell id="05esOvDfcdhIf1nWYy37-21" style="edgeStyle=orthogonalEdgeStyle;rounded=0;orthogonalLoop=1;jettySize=auto;html=1;" parent="1" source="xSIsmB00aMhGTNxRwq87-27" target="xSIsmB00aMhGTNxRwq87-23" edge="1">
          <mxGeometry relative="1" as="geometry" />
        </mxCell>
        <mxCell id="05esOvDfcdhIf1nWYy37-22" value="Sends webrequests to" style="edgeLabel;html=1;align=center;verticalAlign=middle;resizable=0;points=[];" parent="05esOvDfcdhIf1nWYy37-21" vertex="1" connectable="0">
          <mxGeometry x="0.0958" y="-1" relative="1" as="geometry">
            <mxPoint as="offset" />
          </mxGeometry>
        </mxCell>
        <object placeholders="1" c4Name="DataFetcher" c4Type="Component" c4Technology=".NET HttpClient Service" c4Description="Haalt trashdata op van Sensoring API" label="&lt;font style=&quot;font-size: 16px&quot;&gt;&lt;b&gt;%c4Name%&lt;/b&gt;&lt;/font&gt;&lt;div&gt;[%c4Type%: %c4Technology%]&lt;/div&gt;&lt;br&gt;&lt;div&gt;&lt;font style=&quot;font-size: 11px&quot;&gt;%c4Description%&lt;/font&gt;&lt;/div&gt;" id="xSIsmB00aMhGTNxRwq87-27">
          <mxCell style="rounded=1;whiteSpace=wrap;html=1;labelBackgroundColor=none;fillColor=#63BEF2;fontColor=#ffffff;align=center;arcSize=6;strokeColor=#2086C9;metaEdit=1;resizable=0;points=[[0.25,0,0],[0.5,0,0],[0.75,0,0],[1,0.25,0],[1,0.5,0],[1,0.75,0],[0.75,1,0],[0.5,1,0],[0.25,1,0],[0,0.75,0],[0,0.5,0],[0,0.25,0]];" parent="1" vertex="1">
            <mxGeometry x="80" y="210" width="240" height="120" as="geometry" />
          </mxCell>
        </object>
        <object placeholders="1" c4Name="LocationEnricher" c4Type="Component" c4Technology=".NET HttpClient Service" c4Description="Verrijkt trashdata met locatie-informatie" label="&lt;font style=&quot;font-size: 16px&quot;&gt;&lt;b&gt;%c4Name%&lt;/b&gt;&lt;/font&gt;&lt;div&gt;[%c4Type%: %c4Technology%]&lt;/div&gt;&lt;br&gt;&lt;div&gt;&lt;font style=&quot;font-size: 11px&quot;&gt;%c4Description%&lt;/font&gt;&lt;/div&gt;" id="xSIsmB00aMhGTNxRwq87-28">
          <mxCell style="rounded=1;whiteSpace=wrap;html=1;labelBackgroundColor=none;fillColor=#63BEF2;fontColor=#ffffff;align=center;arcSize=6;strokeColor=#2086C9;metaEdit=1;resizable=0;points=[[0.25,0,0],[0.5,0,0],[0.75,0,0],[1,0.25,0],[1,0.5,0],[1,0.75,0],[0.75,1,0],[0.5,1,0],[0.25,1,0],[0,0.75,0],[0,0.5,0],[0,0.25,0]];" parent="1" vertex="1">
            <mxGeometry x="720" y="210" width="240" height="120" as="geometry" />
          </mxCell>
        </object>
        <mxCell id="05esOvDfcdhIf1nWYy37-6" style="edgeStyle=orthogonalEdgeStyle;rounded=0;orthogonalLoop=1;jettySize=auto;html=1;" parent="1" source="xSIsmB00aMhGTNxRwq87-29" target="05esOvDfcdhIf1nWYy37-2" edge="1">
          <mxGeometry relative="1" as="geometry" />
        </mxCell>
        <mxCell id="05esOvDfcdhIf1nWYy37-7" value="Reads/Writes&lt;div&gt;to/from&lt;/div&gt;" style="edgeLabel;html=1;align=center;verticalAlign=middle;resizable=0;points=[];" parent="05esOvDfcdhIf1nWYy37-6" vertex="1" connectable="0">
          <mxGeometry x="0.2861" y="-2" relative="1" as="geometry">
            <mxPoint x="18" y="2" as="offset" />
          </mxGeometry>
        </mxCell>
        <object placeholders="1" c4Name="DatabaseConnector" c4Type="Component" c4Technology="Entity Framework Repository" c4Description="Gebruikt EF Core DbContext om met de database to communiceren." label="&lt;font style=&quot;font-size: 16px&quot;&gt;&lt;b&gt;%c4Name%&lt;/b&gt;&lt;/font&gt;&lt;div&gt;[%c4Type%: %c4Technology%]&lt;/div&gt;&lt;br&gt;&lt;div&gt;&lt;font style=&quot;font-size: 11px&quot;&gt;%c4Description%&lt;/font&gt;&lt;/div&gt;" id="xSIsmB00aMhGTNxRwq87-29">
          <mxCell style="rounded=1;whiteSpace=wrap;html=1;labelBackgroundColor=none;fillColor=#63BEF2;fontColor=#ffffff;align=center;arcSize=6;strokeColor=#2086C9;metaEdit=1;resizable=0;points=[[0.25,0,0],[0.5,0,0],[0.75,0,0],[1,0.25,0],[1,0.5,0],[1,0.75,0],[0.75,1,0],[0.5,1,0],[0.25,1,0],[0,0.75,0],[0,0.5,0],[0,0.25,0]];" parent="1" vertex="1">
            <mxGeometry x="80" y="400" width="240" height="120" as="geometry" />
          </mxCell>
        </object>
        <mxCell id="05esOvDfcdhIf1nWYy37-8" style="edgeStyle=orthogonalEdgeStyle;rounded=0;orthogonalLoop=1;jettySize=auto;html=1;" parent="1" source="xSIsmB00aMhGTNxRwq87-30" target="xSIsmB00aMhGTNxRwq87-29" edge="1">
          <mxGeometry relative="1" as="geometry" />
        </mxCell>
        <mxCell id="05esOvDfcdhIf1nWYy37-9" value="Uses" style="edgeLabel;html=1;align=center;verticalAlign=middle;resizable=0;points=[];" parent="05esOvDfcdhIf1nWYy37-8" vertex="1" connectable="0">
          <mxGeometry x="0.0122" relative="1" as="geometry">
            <mxPoint as="offset" />
          </mxGeometry>
        </mxCell>
        <mxCell id="05esOvDfcdhIf1nWYy37-24" style="edgeStyle=orthogonalEdgeStyle;rounded=0;orthogonalLoop=1;jettySize=auto;html=1;" parent="1" source="xSIsmB00aMhGTNxRwq87-30" target="05esOvDfcdhIf1nWYy37-3" edge="1">
          <mxGeometry relative="1" as="geometry" />
        </mxCell>
        <mxCell id="05esOvDfcdhIf1nWYy37-25" value="Sends webrequests to" style="edgeLabel;html=1;align=center;verticalAlign=middle;resizable=0;points=[];" parent="05esOvDfcdhIf1nWYy37-24" vertex="1" connectable="0">
          <mxGeometry x="0.1252" relative="1" as="geometry">
            <mxPoint as="offset" />
          </mxGeometry>
        </mxCell>
        <object placeholders="1" c4Name="PredictionTrigger" c4Type="Component" c4Technology=".NET HttpClient Service" c4Description="Activeert Python voorspellings-API" label="&lt;font style=&quot;font-size: 16px&quot;&gt;&lt;b&gt;%c4Name%&lt;/b&gt;&lt;/font&gt;&lt;div&gt;[%c4Type%: %c4Technology%]&lt;/div&gt;&lt;br&gt;&lt;div&gt;&lt;font style=&quot;font-size: 11px&quot;&gt;%c4Description%&lt;/font&gt;&lt;/div&gt;" id="xSIsmB00aMhGTNxRwq87-30">
          <mxCell style="rounded=1;whiteSpace=wrap;html=1;labelBackgroundColor=none;fillColor=#63BEF2;fontColor=#ffffff;align=center;arcSize=6;strokeColor=#2086C9;metaEdit=1;resizable=0;points=[[0.25,0,0],[0.5,0,0],[0.75,0,0],[1,0.25,0],[1,0.5,0],[1,0.75,0],[0.75,1,0],[0.5,1,0],[0.25,1,0],[0,0.75,0],[0,0.5,0],[0,0.25,0]];" parent="1" vertex="1">
            <mxGeometry x="80" y="590" width="240" height="120" as="geometry" />
          </mxCell>
        </object>
        <object placeholders="1" c4Name="MariaDB Server" c4Type="Database" c4Technology="MariaDB" c4Description="" label="&lt;font style=&quot;font-size: 16px&quot;&gt;&lt;b&gt;%c4Name%&lt;/b&gt;&lt;/font&gt;&lt;div&gt;[%c4Type%:&amp;nbsp;%c4Technology%]&lt;/div&gt;&lt;br&gt;&lt;div&gt;&lt;font style=&quot;font-size: 11px&quot;&gt;&lt;font color=&quot;#E6E6E6&quot;&gt;%c4Description%&lt;/font&gt;&lt;/div&gt;" id="05esOvDfcdhIf1nWYy37-2">
          <mxCell style="shape=cylinder3;size=15;whiteSpace=wrap;html=1;boundedLbl=1;rounded=0;labelBackgroundColor=none;fillColor=#23A2D9;fontSize=12;fontColor=#ffffff;align=center;strokeColor=#0E7DAD;metaEdit=1;points=[[0.5,0,0],[1,0.25,0],[1,0.5,0],[1,0.75,0],[0.5,1,0],[0,0.75,0],[0,0.5,0],[0,0.25,0]];resizable=0;" parent="1" vertex="1">
            <mxGeometry x="-320" y="400" width="240" height="120" as="geometry" />
          </mxCell>
        </object>
        <object placeholders="1" c4Name="Python Predictions API" c4Type="Container" c4Technology="FastAPI Container" c4Description="Genereert voorspellingen." label="&lt;font style=&quot;font-size: 16px&quot;&gt;&lt;b&gt;%c4Name%&lt;/b&gt;&lt;/font&gt;&lt;div&gt;[%c4Type%: %c4Technology%]&lt;/div&gt;&lt;br&gt;&lt;div&gt;&lt;font style=&quot;font-size: 11px&quot;&gt;&lt;font color=&quot;#E6E6E6&quot;&gt;%c4Description%&lt;/font&gt;&lt;/div&gt;" id="05esOvDfcdhIf1nWYy37-3">
          <mxCell style="rounded=1;whiteSpace=wrap;html=1;fontSize=11;labelBackgroundColor=none;fillColor=#23A2D9;fontColor=#ffffff;align=center;arcSize=10;strokeColor=#0E7DAD;metaEdit=1;resizable=0;points=[[0.25,0,0],[0.5,0,0],[0.75,0,0],[1,0.25,0],[1,0.5,0],[1,0.75,0],[0.75,1,0],[0.5,1,0],[0.25,1,0],[0,0.75,0],[0,0.5,0],[0,0.25,0]];" parent="1" vertex="1">
            <mxGeometry x="80" y="880" width="240" height="120" as="geometry" />
          </mxCell>
        </object>
        <mxCell id="05esOvDfcdhIf1nWYy37-26" style="edgeStyle=orthogonalEdgeStyle;rounded=0;orthogonalLoop=1;jettySize=auto;html=1;" parent="1" source="05esOvDfcdhIf1nWYy37-5" target="xSIsmB00aMhGTNxRwq87-25" edge="1">
          <mxGeometry relative="1" as="geometry" />
        </mxCell>
        <mxCell id="05esOvDfcdhIf1nWYy37-29" value="Sends webrequests to" style="edgeLabel;html=1;align=center;verticalAlign=middle;resizable=0;points=[];" parent="05esOvDfcdhIf1nWYy37-26" vertex="1" connectable="0">
          <mxGeometry x="-0.1444" y="-2" relative="1" as="geometry">
            <mxPoint as="offset" />
          </mxGeometry>
        </mxCell>
        <mxCell id="05esOvDfcdhIf1nWYy37-27" style="rounded=0;orthogonalLoop=1;jettySize=auto;html=1;" parent="1" source="05esOvDfcdhIf1nWYy37-5" target="xSIsmB00aMhGTNxRwq87-22" edge="1">
          <mxGeometry relative="1" as="geometry" />
        </mxCell>
        <mxCell id="05esOvDfcdhIf1nWYy37-28" value="Sends webrequests to" style="edgeLabel;html=1;align=center;verticalAlign=middle;resizable=0;points=[];" parent="05esOvDfcdhIf1nWYy37-27" vertex="1" connectable="0">
          <mxGeometry x="-0.1727" y="-3" relative="1" as="geometry">
            <mxPoint as="offset" />
          </mxGeometry>
        </mxCell>
        <object placeholders="1" c4Name="Blazor Frontend" c4Type="Container" c4Technology="ASP.NET Core Blazor WebAssembly" c4Description="Gebruikersinterface voor monitoringdashboard." label="&lt;font style=&quot;font-size: 16px&quot;&gt;&lt;b&gt;%c4Name%&lt;/b&gt;&lt;/font&gt;&lt;div&gt;[%c4Type%:&amp;nbsp;%c4Technology%]&lt;/div&gt;&lt;br&gt;&lt;div&gt;&lt;font style=&quot;font-size: 11px&quot;&gt;&lt;font color=&quot;#E6E6E6&quot;&gt;%c4Description%&lt;/font&gt;&lt;/div&gt;" id="05esOvDfcdhIf1nWYy37-5">
          <mxCell style="shape=mxgraph.c4.webBrowserContainer2;whiteSpace=wrap;html=1;boundedLbl=1;rounded=0;labelBackgroundColor=none;strokeColor=#118ACD;fillColor=#23A2D9;strokeColor=#118ACD;strokeColor2=#0E7DAD;fontSize=12;fontColor=#ffffff;align=center;metaEdit=1;points=[[0.5,0,0],[1,0.25,0],[1,0.5,0],[1,0.75,0],[0.5,1,0],[0,0.75,0],[0,0.5,0],[0,0.25,0]];resizable=0;" parent="1" vertex="1">
            <mxGeometry x="400" y="880" width="240" height="160" as="geometry" />
          </mxCell>
        </object>
        <mxCell id="05esOvDfcdhIf1nWYy37-14" style="rounded=0;orthogonalLoop=1;jettySize=auto;html=1;entryX=0.995;entryY=0.019;entryDx=0;entryDy=0;entryPerimeter=0;exitX=0.01;exitY=0.983;exitDx=0;exitDy=0;exitPerimeter=0;" parent="1" source="xSIsmB00aMhGTNxRwq87-26" target="xSIsmB00aMhGTNxRwq87-30" edge="1">
          <mxGeometry relative="1" as="geometry" />
        </mxCell>
        <mxCell id="05esOvDfcdhIf1nWYy37-15" value="Activates" style="edgeLabel;html=1;align=center;verticalAlign=middle;resizable=0;points=[];" parent="05esOvDfcdhIf1nWYy37-14" vertex="1" connectable="0">
          <mxGeometry x="-0.2554" y="-2" relative="1" as="geometry">
            <mxPoint as="offset" />
          </mxGeometry>
        </mxCell>
        <mxCell id="05esOvDfcdhIf1nWYy37-18" style="rounded=0;orthogonalLoop=1;jettySize=auto;html=1;entryX=0.998;entryY=0.058;entryDx=0;entryDy=0;entryPerimeter=0;exitX=0.004;exitY=0.962;exitDx=0;exitDy=0;exitPerimeter=0;" parent="1" source="xSIsmB00aMhGTNxRwq87-28" target="xSIsmB00aMhGTNxRwq87-29" edge="1">
          <mxGeometry relative="1" as="geometry" />
        </mxCell>
        <mxCell id="05esOvDfcdhIf1nWYy37-19" value="Uses" style="edgeLabel;html=1;align=center;verticalAlign=middle;resizable=0;points=[];" parent="05esOvDfcdhIf1nWYy37-18" vertex="1" connectable="0">
          <mxGeometry x="-0.1355" y="-1" relative="1" as="geometry">
            <mxPoint as="offset" />
          </mxGeometry>
        </mxCell>
        <mxCell id="05esOvDfcdhIf1nWYy37-30" style="rounded=0;orthogonalLoop=1;jettySize=auto;html=1;entryX=0.992;entryY=0.785;entryDx=0;entryDy=0;entryPerimeter=0;" parent="1" source="xSIsmB00aMhGTNxRwq87-25" target="xSIsmB00aMhGTNxRwq87-29" edge="1">
          <mxGeometry relative="1" as="geometry" />
        </mxCell>
        <mxCell id="05esOvDfcdhIf1nWYy37-33" value="Uses" style="edgeLabel;html=1;align=center;verticalAlign=middle;resizable=0;points=[];" parent="05esOvDfcdhIf1nWYy37-30" vertex="1" connectable="0">
          <mxGeometry x="-0.2862" y="2" relative="1" as="geometry">
            <mxPoint as="offset" />
          </mxGeometry>
        </mxCell>
        <mxCell id="05esOvDfcdhIf1nWYy37-31" style="rounded=0;orthogonalLoop=1;jettySize=auto;html=1;entryX=1;entryY=0.5;entryDx=0;entryDy=0;entryPerimeter=0;exitX=0.027;exitY=0.012;exitDx=0;exitDy=0;exitPerimeter=0;" parent="1" source="xSIsmB00aMhGTNxRwq87-22" target="xSIsmB00aMhGTNxRwq87-29" edge="1">
          <mxGeometry relative="1" as="geometry" />
        </mxCell>
        <mxCell id="05esOvDfcdhIf1nWYy37-32" value="Uses" style="edgeLabel;html=1;align=center;verticalAlign=middle;resizable=0;points=[];" parent="05esOvDfcdhIf1nWYy37-31" vertex="1" connectable="0">
          <mxGeometry x="-0.1023" y="3" relative="1" as="geometry">
            <mxPoint as="offset" />
          </mxGeometry>
        </mxCell>
      </root>
    </mxGraphModel>
  </diagram>
</mxfile>
